<?xml version="1.0" encoding="utf-8"?>
<!-- Generator: Adobe Illustrator 13.0.0, SVG Export Plug-In . SVG Version: 6.00 Build 14948)  -->
<!DOCTYPE svg PUBLIC "-//W3C//DTD SVG 1.1//EN" "http://www.w3.org/Graphics/SVG/1.1/DTD/svg11.dtd">
<svg version="1.1" id="Ebene_1" xmlns="http://www.w3.org/2000/svg" xmlns:xlink="http://www.w3.org/1999/xlink" x="0px" y="0px"
	 width="841.891px" height="595.275px" viewBox="0 0 841.891 595.275" enable-background="new 0 0 841.891 595.275"
	 xml:space="preserve">
<path d="M-23.103,204.476"/>
<path d="M-365.688,408.033"/>
<path d="M468.384,93.289h-59.438c-35.801,0.037-64.896,29.148-64.94,64.987v366.128c0.045,35.801,29.142,64.901,64.94,64.938h346.86
	c35.808-0.037,64.938-29.146,64.986-64.938l0.006-366.128c-0.044-35.838-29.182-64.942-64.985-64.987H702.87H468.384z
	 M709.1,124.348h37.447c23.104,0.03,42.067,18.995,42.098,42.135v131.31l0.01,108.703V514.6
	c-0.028,23.069-18.996,42.069-42.099,42.107H416.76c-23.069-0.038-42.064-19.034-42.106-42.107V166.483
	c0.042-23.104,18.996-42.113,42.106-42.135h45.138H709.1z"/>
<g>
	<path d="M738.711,239.04H426.754c-8.421,0-15.244-6.823-15.244-15.246c0-8.422,6.823-15.245,15.244-15.245h311.957
		c8.419,0,15.246,6.823,15.246,15.245C753.957,232.214,747.13,239.04,738.711,239.04z"/>
</g>
<g>
	<path d="M738.711,298.54H426.754c-8.421,0-15.244-6.824-15.244-15.246s6.823-15.245,15.244-15.245h311.957
		c8.419,0,15.246,6.823,15.246,15.245C753.957,291.714,747.13,298.54,738.711,298.54z"/>
</g>
<g>
	<path d="M738.711,358.04H426.754c-8.421,0-15.244-6.824-15.244-15.246s6.823-15.245,15.244-15.245h311.957
		c8.419,0,15.246,6.823,15.246,15.245C753.957,351.214,747.13,358.04,738.711,358.04z"/>
</g>
<g>
	<path d="M648.711,516.04H426.754c-8.421,0-15.244-6.824-15.244-15.246s6.823-15.245,15.244-15.245h221.957
		c8.419,0,15.246,6.823,15.246,15.245C663.957,509.214,657.13,516.04,648.711,516.04z"/>
</g>
</svg>
