<?xml version="1.0" encoding="utf-8"?>
<!-- Generator: Adobe Illustrator 13.0.0, SVG Export Plug-In . SVG Version: 6.00 Build 14948)  -->
<!DOCTYPE svg PUBLIC "-//W3C//DTD SVG 1.1//EN" "http://www.w3.org/Graphics/SVG/1.1/DTD/svg11.dtd">
<svg version="1.1" id="Ebene_1" xmlns="http://www.w3.org/2000/svg" xmlns:xlink="http://www.w3.org/1999/xlink" x="0px" y="0px"
	 width="841.891px" height="595.275px" viewBox="0 0 841.891 595.275" enable-background="new 0 0 841.891 595.275"
	 xml:space="preserve">
<path fill="#333333" d="M-23.103,204.476"/>
<path d="M-365.688,408.033"/>
<path fill="#333333" d="M468.384,98.289h-59.438c-35.801,0.037-64.896,29.148-64.939,64.987v366.128
	c0.045,35.801,29.142,64.9,64.939,64.938h346.86c35.808-0.037,64.938-29.146,64.986-64.938l0.006-366.128
	c-0.044-35.838-29.183-64.942-64.985-64.987h-52.943H468.384z M709.1,129.348h37.447c23.104,0.03,42.066,18.995,42.098,42.135
	v131.31l0.01,108.703V519.6c-0.027,23.069-18.996,42.069-42.099,42.107H416.76c-23.069-0.038-42.064-19.034-42.106-42.107V171.483
	c0.042-23.104,18.996-42.113,42.106-42.135h45.138H709.1z"/>
<g>
	<path fill="#333333" d="M738.711,244.04H426.754c-8.422,0-15.244-6.823-15.244-15.246c0-8.422,6.822-15.245,15.244-15.245h311.957
		c8.419,0,15.245,6.823,15.245,15.245C753.956,237.214,747.13,244.04,738.711,244.04z"/>
</g>
<g>
	<path fill="#333333" d="M738.711,303.54H426.754c-8.422,0-15.244-6.824-15.244-15.246s6.822-15.245,15.244-15.245h311.957
		c8.419,0,15.245,6.823,15.245,15.245C753.956,296.714,747.13,303.54,738.711,303.54z"/>
</g>
<g>
	<path fill="#333333" d="M738.711,363.04H426.754c-8.422,0-15.244-6.824-15.244-15.246s6.822-15.245,15.244-15.245h311.957
		c8.419,0,15.245,6.823,15.245,15.245C753.956,356.214,747.13,363.04,738.711,363.04z"/>
</g>
<g>
	<path fill="#333333" d="M648.711,521.04H426.754c-8.422,0-15.244-6.824-15.244-15.246s6.822-15.245,15.244-15.245h221.957
		c8.419,0,15.245,6.823,15.245,15.245C663.956,514.214,657.13,521.04,648.711,521.04z"/>
</g>
</svg>
