<?xml version="1.0" encoding="utf-8"?>
<!-- Generator: Adobe Illustrator 13.0.0, SVG Export Plug-In . SVG Version: 6.00 Build 14948)  -->
<!DOCTYPE svg PUBLIC "-//W3C//DTD SVG 1.1//EN" "http://www.w3.org/Graphics/SVG/1.1/DTD/svg11.dtd">
<svg version="1.1" id="Ebene_1" xmlns="http://www.w3.org/2000/svg" xmlns:xlink="http://www.w3.org/1999/xlink" x="0px" y="0px"
	 width="841.891px" height="595.275px" viewBox="0 0 841.891 595.275" enable-background="new 0 0 841.891 595.275"
	 xml:space="preserve">
<path d="M-23.103,204.476"/>
<path d="M-365.688,408.033"/>
<path d="M513.815,93.289h-52.943c-10.771-18.146-34.92-32.799-67.093-40.242c-0.542-27.325-22.805-49.316-50.303-49.316
	c-27.619,0-50.054,22.286-50.317,49.866c-31.606,7.595-55.794,21.969-66.775,39.692h-59.436
	c-35.801,0.037-64.897,29.148-64.942,64.987v366.128c0.045,35.801,29.142,64.903,64.942,64.94h346.86
	c35.808-0.037,64.939-29.146,64.986-64.94l0.006-366.128C578.756,122.438,549.62,93.334,513.815,93.289z M467.1,163.75
	c0,0,0-24.815,0-39.402h37.447c23.104,0.03,42.069,18.995,42.098,42.135v131.31l0.01,108.703V514.6
	c-0.03,23.069-18.996,42.069-42.099,42.107H174.76c-23.069-0.038-42.064-19.034-42.106-42.107V166.483
	c0.042-23.104,18.996-42.113,42.106-42.135h45.138c0,14.399,0,39.402,0,39.402H467.1z M343.483,34.367
	c10.877,0,19.713,8.827,19.739,19.704c-0.026,10.876-8.862,19.708-19.739,19.734c-10.877-0.025-19.709-8.857-19.709-19.734
	C323.774,43.194,332.606,34.367,343.483,34.367z"/>
<g>
	<path d="M496.711,239.04H184.754c-8.421,0-15.244-6.823-15.244-15.246c0-8.422,6.823-15.245,15.244-15.245h311.957
		c8.419,0,15.246,6.823,15.246,15.245C511.957,232.214,505.13,239.04,496.711,239.04z"/>
</g>
<g>
	<path d="M496.711,298.54H184.754c-8.421,0-15.244-6.824-15.244-15.246s6.823-15.245,15.244-15.245h311.957
		c8.419,0,15.246,6.823,15.246,15.245C511.957,291.714,505.13,298.54,496.711,298.54z"/>
</g>
<g>
	<path d="M496.711,358.04H184.754c-8.421,0-15.244-6.824-15.244-15.246s6.823-15.245,15.244-15.245h311.957
		c8.419,0,15.246,6.823,15.246,15.245C511.957,351.214,505.13,358.04,496.711,358.04z"/>
</g>
<g>
	<path d="M406.711,516.04H184.754c-8.421,0-15.244-6.824-15.244-15.246s6.823-15.245,15.244-15.245h221.957
		c8.419,0,15.246,6.823,15.246,15.245C421.957,509.214,415.13,516.04,406.711,516.04z"/>
</g>
<polygon points="533.455,482.19 574.092,433.706 594.794,408.981 746.897,227.476 694.82,175.386 594.8,294.681 574.082,319.38 
	481.312,430.033 468.845,474.937 463.512,504.416 490.679,496.762 "/>
</svg>
